<?xml version="1.0" encoding="UTF-8" standalone="no"?>
<!-- Created with Inkscape (http://www.inkscape.org/) -->

<svg
   id="svg2913"
   viewBox="0 0 48 48"
   sodipodi:version="0.32"
   inkscape:output_extension="org.inkscape.output.svg.inkscape"
   inkscape:version="1.4 (e7c3feb100, 2024-10-09)"
   sodipodi:docname="drive-optical_stale.svg"
   version="1.1"
   xmlns:inkscape="http://www.inkscape.org/namespaces/inkscape"
   xmlns:sodipodi="http://sodipodi.sourceforge.net/DTD/sodipodi-0.dtd"
   xmlns:xlink="http://www.w3.org/1999/xlink"
   xmlns="http://www.w3.org/2000/svg"
   xmlns:svg="http://www.w3.org/2000/svg"
   xmlns:rdf="http://www.w3.org/1999/02/22-rdf-syntax-ns#"
   xmlns:cc="http://creativecommons.org/ns#"
   xmlns:dc="http://purl.org/dc/elements/1.1/">
  <defs
     id="defs3">
    <radialGradient
       id="radialGradient6719"
       xlink:href="#linearGradient5060"
       gradientUnits="userSpaceOnUse"
       cy="486.65"
       cx="605.71"
       gradientTransform="matrix(-2.7744 0 0 1.9697 112.76 -872.89)"
       r="117.14"
       inkscape:collect="always" />
    <linearGradient
       id="linearGradient5060"
       inkscape:collect="always">
      <stop
         id="stop5062"
         style="stop-color:black"
         offset="0" />
      <stop
         id="stop5064"
         style="stop-color:black;stop-opacity:0"
         offset="1" />
    </linearGradient>
    <radialGradient
       id="radialGradient6717"
       xlink:href="#linearGradient5060"
       gradientUnits="userSpaceOnUse"
       cy="486.65"
       cx="605.71"
       gradientTransform="matrix(2.7744 0 0 1.9697 -1891.6 -872.89)"
       r="117.14"
       inkscape:collect="always" />
    <linearGradient
       id="linearGradient6715"
       y2="609.51"
       gradientUnits="userSpaceOnUse"
       x2="302.86"
       gradientTransform="matrix(2.7744 0 0 1.9697 -1892.2 -872.89)"
       y1="366.65"
       x1="302.86"
       inkscape:collect="always">
      <stop
         id="stop5050"
         style="stop-color:black;stop-opacity:0"
         offset="0" />
      <stop
         id="stop5056"
         style="stop-color:black"
         offset=".5" />
      <stop
         id="stop5052"
         style="stop-color:black;stop-opacity:0"
         offset="1" />
    </linearGradient>
    <linearGradient
       id="linearGradient4234"
       y2="40.944"
       gradientUnits="userSpaceOnUse"
       y1="28.481"
       gradientTransform="translate(0 -1.9445)"
       x2="36.183"
       x1="7.6046"
       inkscape:collect="always">
      <stop
         id="stop4230"
         style="stop-color:#bbbbbb"
         offset="0" />
      <stop
         id="stop4232"
         style="stop-color:#9f9f9f"
         offset="1" />
    </linearGradient>
    <radialGradient
       id="radialGradient4250"
       cx="15.571"
       gradientUnits="userSpaceOnUse"
       cy="2.9585"
       r="20.936"
       gradientTransform="matrix(1.2862 .78170 -.71078 1.1696 -2.3543 -6.8214)"
       inkscape:collect="always">
      <stop
         id="stop4246"
         style="stop-color:#e4e4e4"
         offset="0" />
      <stop
         id="stop4248"
         style="stop-color:#d3d3d3"
         offset="1" />
    </radialGradient>
    <linearGradient
       id="linearGradient4260"
       y2="47.621"
       gradientUnits="userSpaceOnUse"
       y1="4.4331"
       gradientTransform="translate(0 -1.9445)"
       x2="44.096"
       x1="12.378"
       inkscape:collect="always">
      <stop
         id="stop4256"
         style="stop-color:#ffffff"
         offset="0" />
      <stop
         id="stop4258"
         style="stop-color:#ffffff;stop-opacity:0"
         offset="1" />
    </linearGradient>
  </defs>
  <sodipodi:namedview
     id="base"
     bordercolor="#666666"
     inkscape:window-x="0"
     inkscape:window-y="0"
     pagecolor="#ffffff"
     inkscape:showpageshadow="false"
     inkscape:grid-bbox="true"
     inkscape:zoom="10.159082"
     inkscape:pageshadow="2"
     showgrid="false"
     borderopacity="0.17254902"
     inkscape:current-layer="svg2913"
     inkscape:cx="13.780773"
     inkscape:cy="31.105174"
     inkscape:window-width="2560"
     inkscape:pageopacity="0.0"
     inkscape:window-height="1371"
     inkscape:document-units="px"
     inkscape:pagecheckerboard="0"
     inkscape:window-maximized="1"
     inkscape:deskcolor="#d1d1d1" />
  <g
     id="layer2"
     inkscape:label="pix"
     inkscape:groupmode="layer"
     style="display:inline">
    <g
       id="g6707"
       transform="matrix(0.024527,0,0,0.020868,45.691,34.828)">
      <rect
         id="rect6709"
         style="color:#000000;opacity:0.40206;fill:url(#linearGradient6715)"
         height="478.35999"
         width="1339.6"
         y="-150.7"
         x="-1559.3" />
      <path
         id="path6711"
         sodipodi:nodetypes="cccc"
         style="color:#000000;opacity:0.40206;fill:url(#radialGradient6717)"
         d="m -219.62,-150.68 v 478.33 c 142.88,0.9 345.4,-107.17 345.4,-239.2 0,-132.02 -159.44,-239.13 -345.4,-239.13 z" />
      <path
         id="path6713"
         sodipodi:nodetypes="cccc"
         style="color:#000000;opacity:0.40206;fill:url(#radialGradient6719)"
         d="m -1559.3,-150.68 v 478.33 c -142.8,0.9 -345.4,-107.17 -345.4,-239.2 0,-132.02 159.5,-239.13 345.4,-239.13 z" />
    </g>
    <path
       id="path4196"
       sodipodi:nodetypes="cccsccccccccc"
       style="fill:none;stroke:#535353;stroke-width:2;stroke-linecap:round;stroke-linejoin:round"
       d="m 11.286,6.0181 c -0.625,0 -1.032,0.2902 -1.282,0.8437 l -6.4683,17.103 c 0,0 -0.25,0.672 -0.25,1.782 v 9.65 c 0,1.082 0.6578,1.625 1.6562,1.625 h 38.562 c 0.985,0 1.594,-0.719 1.594,-1.844 v -9.65 c 0,0 0.106,-0.771 -0.094,-1.313 l -6.718,-17.197 c -0.185,-0.5118 -0.637,-0.988 -1.125,-0.9999 h -25.875 z" />
    <path
       id="path4170"
       sodipodi:nodetypes="ccccccccc"
       style="fill:url(#linearGradient4234);fill-rule:evenodd"
       d="m 3.2736,25.052 0.7646,-0.692 37.61,0.063 3.462,0.317 v 10.438 c 0,1.126 -0.607,1.844 -1.592,1.844 H 4.9352 c -0.998,0 -1.6614,-0.542 -1.6614,-1.625 V 25.052 Z" />
    <path
       id="path3093"
       sodipodi:nodetypes="csccccccs"
       style="fill:url(#radialGradient4250);fill-rule:evenodd"
       d="m 3.5491,23.97 c -0.7143,1.464 -6e-4,2.393 1.0357,2.393 h 39 c 1.119,-0.024 1.845,-1.012 1.428,-2.143 L 38.2988,7.009 c -0.184,-0.5117 -0.655,-0.9879 -1.143,-0.9998 h -25.857 c -0.625,0 -1.036,0.3035 -1.286,0.8571 l -6.4639,17.104 z" />
    <path
       id="path4201"
       sodipodi:nodetypes="cccccccc"
       style="fill:#ffffff;fill-rule:evenodd"
       d="M 44.796,23.684 C 44.86,24.934 44.382,26 43.474,26.028 H 5.355 c -1.2889,0 -1.8674,-0.325 -2.0837,-0.868 0.0917,0.944 0.8258,1.649 2.084,1.649 h 38.119 c 1.076,-0.033 1.753,-1.424 1.352,-2.995 l -0.03,-0.13 z" />
    <path
       id="path4252"
       sodipodi:nodetypes="cccsccccccccc"
       style="fill:none;stroke:url(#linearGradient4260);stroke-linecap:round;stroke-linejoin:round"
       d="m 11.643,6.4712 c -0.602,0 -0.993,0.2793 -1.234,0.8123 l -6.415,16.59 c 0,0 -0.2406,0.647 -0.2406,1.715 v 9.29 c 0,1.355 0.444,1.627 1.5944,1.627 h 37.687 c 1.323,0 1.534,-0.316 1.534,-1.837 v -9.291 c 0,0 0.102,-0.741 -0.09,-1.263 l -6.593,-16.806 c -0.178,-0.4929 -0.551,-0.8264 -1.021,-0.8378 h -25.222 z" />
    <rect
       style="fill:#808080;stroke-width:1.00855"
       id="rect573"
       width="32.164555"
       height="3.375"
       x="8.2911806"
       y="30.25" />
  </g>
  <metadata
     id="metadata172">
    <rdf:RDF>
      <cc:Work>
        <dc:format>image/svg+xml</dc:format>
        <dc:type
           rdf:resource="http://purl.org/dc/dcmitype/StillImage" />
        <cc:license
           rdf:resource="http://creativecommons.org/licenses/publicdomain/" />
        <dc:publisher>
          <cc:Agent
             rdf:about="http://openclipart.org/">
            <dc:title>Openclipart</dc:title>
          </cc:Agent>
        </dc:publisher>
        <dc:date>2010-03-27T10:13:48</dc:date>
        <dc:description>&quot;Optical drive&quot; (CD/DVD drive) icon from &lt;a href=&quot;http://tango.freedesktop.org/Tango_Desktop_Project&quot;&gt; Tango Project &lt;/a&gt; 
\n&lt;br&gt;&lt;br&gt;
\nSince version 0.8.90 Tango Project icons are Public Domain: &lt;a href=&quot;http://tango.freedesktop.org/Frequently_Asked_Questions#Terms_of_Use.3F&quot;&gt; Tango Project FAQ &lt;/a&gt;</dc:description>
        <dc:source>https://openclipart.org/detail/34543/tango-drive-optical-by-warszawianka</dc:source>
        <dc:creator>
          <cc:Agent>
            <dc:title>warszawianka</dc:title>
          </cc:Agent>
        </dc:creator>
        <dc:subject>
          <rdf:Bag>
            <rdf:li>cdrom</rdf:li>
            <rdf:li>device</rdf:li>
            <rdf:li>dvd</rdf:li>
            <rdf:li>externalsource</rdf:li>
            <rdf:li>hardware</rdf:li>
            <rdf:li>icon</rdf:li>
            <rdf:li>storage</rdf:li>
            <rdf:li>tango</rdf:li>
          </rdf:Bag>
        </dc:subject>
      </cc:Work>
      <cc:License
         rdf:about="http://creativecommons.org/licenses/publicdomain/">
        <cc:permits
           rdf:resource="http://creativecommons.org/ns#Reproduction" />
        <cc:permits
           rdf:resource="http://creativecommons.org/ns#Distribution" />
        <cc:permits
           rdf:resource="http://creativecommons.org/ns#DerivativeWorks" />
      </cc:License>
    </rdf:RDF>
  </metadata>
  <rect
     id="rect1686"
     style="color:#000000;fill:#cc0000;fill-rule:evenodd;stroke:#a40000;stroke-linecap:square;stroke-linejoin:round"
     inkscape:r_cy="true"
     inkscape:r_cx="true"
     rx="2.2097001"
     ry="2.2097001"
     height="19"
     width="20"
     y="2.3545885"
     x="14.544716" />
  <g
     id="g2254"
     inkscape:r_cx="true"
     inkscape:r_cy="true"
     transform="matrix(0.77903,0,0,0.77903,14.740717,-16.969812)">
    <path
       id="path1377"
       d="M 8,32 18,42"
       style="color:#000000;fill:none;stroke:#ffffff;stroke-width:2.5673;stroke-linecap:round;stroke-linejoin:round"
       inkscape:r_cy="true"
       inkscape:r_cx="true" />
    <path
       id="path2252"
       style="color:#000000;fill:none;stroke:#ffffff;stroke-width:2.5673;stroke-linecap:round;stroke-linejoin:round"
       inkscape:r_cx="true"
       inkscape:r_cy="true"
       d="M 18,32 8,42" />
  </g>
  <rect
     id="rect2258"
     style="color:#000000;opacity:0.4;fill:none;stroke:#ffffff;stroke-linecap:square;stroke-linejoin:round"
     inkscape:r_cy="true"
     inkscape:r_cx="true"
     rx="1.5847"
     ry="1.5847"
     height="17.190001"
     width="18.094999"
     y="3.2585878"
     x="15.497715" />
</svg>
